<?xml version="1.0" encoding="utf-8"?>
<!-- Generator: Adobe Illustrator 24.0.0, SVG Export Plug-In . SVG Version: 6.00 Build 0)  -->
<svg version="1.1" id="Layer_1" xmlns="http://www.w3.org/2000/svg" xmlns:xlink="http://www.w3.org/1999/xlink" x="0px" y="0px"
	 viewBox="0 0 937 143" style="enable-background:new 0 0 937 143;" xml:space="preserve">
<style type="text/css">
	.st0{fill:#FCEE21;stroke:#000000;stroke-width:0.5;stroke-miterlimit:10;}
	.st1{fill:none;stroke:#000000;stroke-width:0.5;stroke-miterlimit:10;}
</style>
<g>
	<g>
		<g>
			<path class="st0" d="M47.65,33.48c3.23-0.56,11.21-1.21,18.47-1.21c8.55,0,12.99,0.56,17.26,2.26c4.6,1.77,8.31,5.73,8.31,11.54
				c0,4.6-2.58,8.96-9.2,11.3v0.16c6.78,1.78,11.05,6.62,11.05,13.39c0,5.33-2.82,9.52-6.78,12.26c-4.36,2.9-11.46,4.6-23.56,4.6
				c-7.42,0-12.58-0.48-15.57-0.97V33.48z M62.74,53.32h3.23c7.1,0,10.33-1.94,10.33-5.33c0-3.07-2.66-4.84-8.07-4.84
				c-2.9,0-4.44,0.16-5.49,0.32V53.32z M62.74,76.56c1.21,0.16,2.66,0.16,4.92,0.16c5.32,0,9.76-1.86,9.76-6.62
				c0-4.6-4.6-6.13-10.73-6.13h-3.95V76.56z"/>
		</g>
		<g>
			<path class="st0" d="M48.3,36.39c3.23-0.56,11.21-1.21,18.47-1.21c8.55,0,12.99,0.56,17.26,2.26c4.6,1.77,8.31,5.73,8.31,11.54
				c0,4.6-2.58,8.96-9.2,11.3v0.16c6.78,1.78,11.05,6.62,11.05,13.39c0,5.33-2.82,9.52-6.78,12.26c-4.36,2.9-11.46,4.6-23.56,4.6
				c-7.42,0-12.58-0.48-15.57-0.97V36.39z M63.38,56.24h3.23c7.1,0,10.33-1.94,10.33-5.33c0-3.07-2.66-4.84-8.07-4.84
				c-2.9,0-4.44,0.16-5.49,0.32V56.24z M63.38,79.48c1.21,0.16,2.66,0.16,4.92,0.16c5.32,0,9.76-1.86,9.76-6.62
				c0-4.6-4.6-6.13-10.73-6.13h-3.95V79.48z"/>
		</g>
		<g>
			<path class="st0" d="M48.3,38.07c3.23-0.56,11.21-1.21,18.47-1.21c8.55,0,12.99,0.56,17.26,2.26c4.6,1.77,8.31,5.73,8.31,11.54
				c0,4.6-2.58,8.96-9.2,11.3v0.16c6.78,1.78,11.05,6.62,11.05,13.39c0,5.33-2.82,9.52-6.78,12.26c-4.36,2.9-11.46,4.6-23.56,4.6
				c-7.42,0-12.58-0.48-15.57-0.97V38.07z M63.38,57.92h3.23c7.1,0,10.33-1.94,10.33-5.33c0-3.07-2.66-4.84-8.07-4.84
				c-2.9,0-4.44,0.16-5.49,0.32V57.92z M63.38,81.16c1.21,0.16,2.66,0.16,4.92,0.16c5.32,0,9.76-1.86,9.76-6.62
				c0-4.6-4.6-6.13-10.73-6.13h-3.95V81.16z"/>
		</g>
		<g>
			<path class="st0" d="M48.3,38.07c3.23-0.56,11.21-1.21,18.47-1.21c8.55,0,12.99,0.56,17.26,2.26c4.6,1.77,8.31,5.73,8.31,11.54
				c0,4.6-2.58,8.96-9.2,11.3v0.16c6.78,1.78,11.05,6.62,11.05,13.39c0,5.33-2.82,9.52-6.78,12.26c-4.36,2.9-11.46,4.6-23.56,4.6
				c-7.42,0-12.58-0.48-15.57-0.97V38.07z M63.38,57.92h3.23c7.1,0,10.33-1.94,10.33-5.33c0-3.07-2.66-4.84-8.07-4.84
				c-2.9,0-4.44,0.16-5.49,0.32V57.92z M63.38,81.16c1.21,0.16,2.66,0.16,4.92,0.16c5.32,0,9.76-1.86,9.76-6.62
				c0-4.6-4.6-6.13-10.73-6.13h-3.95V81.16z"/>
		</g>
		<g>
			<path class="st0" d="M44.93,36.39c3.23-0.56,11.21-1.21,18.47-1.21c8.55,0,12.99,0.56,17.26,2.26c4.6,1.77,8.31,5.73,8.31,11.54
				c0,4.6-2.58,8.96-9.2,11.3v0.16c6.78,1.78,11.05,6.62,11.05,13.39c0,5.33-2.82,9.52-6.78,12.26c-4.36,2.9-11.46,4.6-23.56,4.6
				c-7.42,0-12.58-0.48-15.57-0.97V36.39z M60.02,56.24h3.23c7.1,0,10.33-1.94,10.33-5.33c0-3.07-2.66-4.84-8.07-4.84
				c-2.9,0-4.44,0.16-5.49,0.32V56.24z M60.02,79.48c1.21,0.16,2.66,0.16,4.92,0.16c5.32,0,9.76-1.86,9.76-6.62
				c0-4.6-4.6-6.13-10.73-6.13h-3.95V79.48z"/>
		</g>
	</g>
	<line class="st1" x1="35.5" y1="92.5" x2="911.33" y2="88.96"/>
	<g>
		<g>
			<path class="st0" d="M114.43,50.35l5.24,17.19c0.65,2.26,1.45,5.49,2.02,7.42h0.32c0.56-2.1,1.21-5.33,1.69-7.42l3.95-17.19
				h16.62l-8.39,22.67c-7.34,20.09-11.7,25.82-16.05,29.37c-4.84,3.95-10,5.24-14.28,5.57l-2.82-12.75
				c1.37-0.08,3.07-0.48,4.92-1.13c2.02-0.65,4.19-2.42,5.16-3.55c0.48-0.56,0.81-1.29,0.81-1.86c0-0.48-0.08-1.13-0.65-2.34
				L97.41,50.35H114.43z"/>
		</g>
		<g>
			<path class="st0" d="M115.02,52.94l5.24,17.19c0.65,2.26,1.45,5.49,2.02,7.42h0.32c0.56-2.1,1.21-5.33,1.69-7.42l3.95-17.19
				h16.62l-8.39,22.67c-7.34,20.09-11.7,25.82-16.05,29.37c-4.84,3.95-10,5.24-14.28,5.57l-2.82-12.75
				c1.37-0.08,3.07-0.48,4.92-1.13c2.02-0.65,4.19-2.42,5.16-3.55c0.48-0.56,0.81-1.29,0.81-1.86c0-0.48-0.08-1.13-0.65-2.34
				L97.99,52.94H115.02z"/>
		</g>
		<g>
			<path class="st0" d="M114.99,55.35l5.24,17.19c0.65,2.26,1.45,5.49,2.02,7.42h0.32c0.56-2.1,1.21-5.33,1.69-7.42l3.95-17.19
				h16.62l-8.39,22.67c-7.34,20.09-11.7,25.82-16.05,29.37c-4.84,3.95-10,5.24-14.28,5.57l-2.82-12.75
				c1.37-0.08,3.07-0.48,4.92-1.13c2.02-0.65,4.19-2.42,5.16-3.55c0.48-0.56,0.81-1.29,0.81-1.86c0-0.48-0.08-1.13-0.65-2.34
				L97.97,55.35H114.99z"/>
		</g>
		<g>
			<path class="st0" d="M114.85,58.27l5.24,17.19c0.65,2.26,1.45,5.49,2.02,7.42h0.32c0.56-2.1,1.21-5.33,1.69-7.42l3.95-17.19
				h16.62l-8.39,22.67c-7.34,20.09-11.7,25.82-16.05,29.37c-4.84,3.95-10,5.24-14.28,5.57l-2.82-12.75
				c1.37-0.08,3.07-0.48,4.92-1.13c2.02-0.65,4.19-2.42,5.16-3.55c0.48-0.56,0.81-1.29,0.81-1.86c0-0.48-0.08-1.13-0.65-2.34
				L97.83,58.27H114.85z"/>
		</g>
	</g>
	<g>
		<g>
			<path class="st0" d="M191.52,49.57c-0.16,1.94-0.32,5-0.32,12.1v21.3c0,6.7-1.29,13.8-6.53,18.32c-5,4.2-11.62,5.08-17.75,5.08
				c-5.97,0-12.26-1.21-16.13-3.31l2.9-11.46c2.5,1.45,7.66,3.31,12.67,3.31c5.08,0,9.92-2.5,9.92-9.12v-1.77h-0.16
				c-2.74,3.31-6.62,4.76-10.89,4.76c-9.76,0-18.07-6.86-18.07-19.37c0-12.51,8.79-20.82,19.44-20.82c5.57,0,8.95,2.1,11.21,5.33
				h0.16l0.4-4.36H191.52z M175.95,66.52c0-0.48,0-1.05-0.08-1.53c-0.73-3.39-2.9-5.33-6.05-5.33c-3.47,0-7.1,2.9-7.1,9.52
				c0,4.76,2.74,8.71,7.18,8.71c3.15,0,5.4-2.18,5.89-4.68c0.16-0.89,0.16-2.18,0.16-3.07V66.52z"/>
		</g>
		<g>
			<path class="st0" d="M191.1,51.55c-0.16,1.94-0.32,5-0.32,12.1v21.3c0,6.7-1.29,13.8-6.53,18.32c-5,4.2-11.62,5.08-17.75,5.08
				c-5.97,0-12.26-1.21-16.13-3.31l2.9-11.46c2.5,1.45,7.66,3.31,12.67,3.31c5.08,0,9.92-2.5,9.92-9.12V86h-0.16
				c-2.74,3.31-6.62,4.76-10.89,4.76c-9.76,0-18.07-6.86-18.07-19.37c0-12.51,8.79-20.82,19.44-20.82c5.57,0,8.95,2.1,11.21,5.33
				h0.16l0.4-4.36H191.1z M175.53,68.49c0-0.48,0-1.05-0.08-1.53c-0.73-3.39-2.9-5.33-6.05-5.33c-3.47,0-7.1,2.9-7.1,9.52
				c0,4.76,2.74,8.71,7.18,8.71c3.15,0,5.4-2.18,5.89-4.68c0.16-0.89,0.16-2.18,0.16-3.07V68.49z"/>
		</g>
		<g>
			<path class="st0" d="M191.1,53.23c-0.16,1.94-0.32,5-0.32,12.1v21.3c0,6.7-1.29,13.8-6.53,18.32c-5,4.2-11.62,5.08-17.75,5.08
				c-5.97,0-12.26-1.21-16.13-3.31l2.9-11.46c2.5,1.45,7.66,3.31,12.67,3.31c5.08,0,9.92-2.5,9.92-9.12v-1.77h-0.16
				c-2.74,3.31-6.62,4.76-10.89,4.76c-9.76,0-18.07-6.86-18.07-19.37c0-12.51,8.79-20.82,19.44-20.82c5.57,0,8.95,2.1,11.21,5.33
				h0.16l0.4-4.36H191.1z M175.53,70.17c0-0.48,0-1.05-0.08-1.53c-0.73-3.39-2.9-5.33-6.05-5.33c-3.47,0-7.1,2.9-7.1,9.52
				c0,4.76,2.74,8.71,7.18,8.71c3.15,0,5.4-2.18,5.89-4.68c0.16-0.89,0.16-2.18,0.16-3.07V70.17z"/>
		</g>
		<g>
			<path class="st0" d="M191.1,54.91c-0.16,1.94-0.32,5-0.32,12.1v21.3c0,6.7-1.29,13.8-6.53,18.32c-5,4.2-11.62,5.08-17.75,5.08
				c-5.97,0-12.26-1.21-16.13-3.31l2.9-11.46c2.5,1.45,7.66,3.31,12.67,3.31c5.08,0,9.92-2.5,9.92-9.12v-1.77h-0.16
				c-2.74,3.31-6.62,4.76-10.89,4.76c-9.76,0-18.07-6.86-18.07-19.37c0-12.51,8.79-20.82,19.44-20.82c5.57,0,8.95,2.1,11.21,5.33
				h0.16l0.4-4.36H191.1z M175.53,71.86c0-0.48,0-1.05-0.08-1.53c-0.73-3.39-2.9-5.33-6.05-5.33c-3.47,0-7.1,2.9-7.1,9.52
				c0,4.76,2.74,8.71,7.18,8.71c3.15,0,5.4-2.18,5.89-4.68c0.16-0.89,0.16-2.18,0.16-3.07V71.86z"/>
		</g>
	</g>
	<g>
		<g>
			<path class="st0" d="M241.04,47.44c-0.16,1.94-0.32,5-0.32,12.1v21.3c0,6.7-1.29,13.8-6.53,18.32c-5,4.2-11.62,5.08-17.75,5.08
				c-5.97,0-12.26-1.21-16.13-3.31l2.9-11.46c2.5,1.45,7.66,3.31,12.67,3.31c5.08,0,9.92-2.5,9.92-9.12v-1.77h-0.16
				c-2.74,3.31-6.62,4.76-10.89,4.76c-9.76,0-18.07-6.86-18.07-19.37c0-12.51,8.79-20.82,19.44-20.82c5.57,0,8.95,2.1,11.21,5.33
				h0.16l0.4-4.36H241.04z M225.47,64.38c0-0.48,0-1.05-0.08-1.53c-0.73-3.39-2.9-5.33-6.05-5.33c-3.47,0-7.1,2.9-7.1,9.52
				c0,4.76,2.74,8.71,7.18,8.71c3.15,0,5.4-2.18,5.89-4.68c0.16-0.89,0.16-2.18,0.16-3.07V64.38z"/>
		</g>
		<g>
			<path class="st0" d="M240.62,49.41c-0.16,1.94-0.32,5-0.32,12.1v21.3c0,6.7-1.29,13.8-6.53,18.32c-5,4.2-11.62,5.08-17.75,5.08
				c-5.97,0-12.26-1.21-16.13-3.31l2.9-11.46c2.5,1.45,7.66,3.31,12.67,3.31c5.08,0,9.92-2.5,9.92-9.12v-1.77h-0.16
				c-2.74,3.31-6.62,4.76-10.89,4.76c-9.76,0-18.07-6.86-18.07-19.37c0-12.51,8.79-20.82,19.44-20.82c5.57,0,8.95,2.1,11.21,5.33
				h0.16l0.4-4.36H240.62z M225.05,66.35c0-0.48,0-1.05-0.08-1.53c-0.73-3.39-2.9-5.33-6.05-5.33c-3.47,0-7.1,2.9-7.1,9.52
				c0,4.76,2.74,8.71,7.18,8.71c3.15,0,5.4-2.18,5.89-4.68c0.16-0.89,0.16-2.18,0.16-3.07V66.35z"/>
		</g>
		<g>
			<path class="st0" d="M240.62,51.09c-0.16,1.94-0.32,5-0.32,12.1v21.3c0,6.7-1.29,13.8-6.53,18.32c-5,4.2-11.62,5.08-17.75,5.08
				c-5.97,0-12.26-1.21-16.13-3.31l2.9-11.46c2.5,1.45,7.66,3.31,12.67,3.31c5.08,0,9.92-2.5,9.92-9.12v-1.77h-0.16
				c-2.74,3.31-6.62,4.76-10.89,4.76c-9.76,0-18.07-6.86-18.07-19.37c0-12.51,8.79-20.82,19.44-20.82c5.57,0,8.95,2.1,11.21,5.33
				h0.16l0.4-4.36H240.62z M225.05,68.04c0-0.48,0-1.05-0.08-1.53c-0.73-3.39-2.9-5.33-6.05-5.33c-3.47,0-7.1,2.9-7.1,9.52
				c0,4.76,2.74,8.71,7.18,8.71c3.15,0,5.4-2.18,5.89-4.68c0.16-0.89,0.16-2.18,0.16-3.07V68.04z"/>
		</g>
		<g>
			<path class="st0" d="M240.62,52.77c-0.16,1.94-0.32,5-0.32,12.1v21.3c0,6.7-1.29,13.8-6.53,18.32c-5,4.2-11.62,5.08-17.75,5.08
				c-5.97,0-12.26-1.21-16.13-3.31l2.9-11.46c2.5,1.45,7.66,3.31,12.67,3.31c5.08,0,9.92-2.5,9.92-9.12v-1.77h-0.16
				c-2.74,3.31-6.62,4.76-10.89,4.76c-9.76,0-18.07-6.86-18.07-19.37c0-12.51,8.79-20.82,19.44-20.82c5.57,0,8.95,2.1,11.21,5.33
				h0.16l0.4-4.36H240.62z M225.05,69.72c0-0.48,0-1.05-0.08-1.53c-0.73-3.39-2.9-5.33-6.05-5.33c-3.47,0-7.1,2.9-7.1,9.52
				c0,4.76,2.74,8.71,7.18,8.71c3.15,0,5.4-2.18,5.89-4.68c0.16-0.89,0.16-2.18,0.16-3.07V69.72z"/>
		</g>
	</g>
	<g>
		<path class="st0" d="M250.27,63.75c0-5.65-0.16-10.25-0.32-13.8h12.67l0.56,5.08h0.32c1.21-1.69,4.68-6.05,12.42-6.05
			c5.16,0,9.52,2.42,11.38,6.7h0.16c1.77-2.26,3.71-3.87,5.89-5c2.18-1.13,4.68-1.69,7.5-1.69c8.79,0,14.44,6.13,14.44,17.75v22.92
			h-14.68V68.99c0-5.16-1.77-7.91-5.24-7.91c-2.58,0-4.19,1.69-4.84,3.63c-0.32,0.97-0.4,2.26-0.4,3.07v21.87h-14.68V68.99
			c0-5.16-1.77-7.91-5.24-7.91c-3.07,0-4.36,2.34-4.84,3.55c-0.4,1.05-0.4,2.1-0.4,2.99v22.03h-14.68V63.75z"/>
	</g>
	<g>
		<path d="M756.99,58.28h-27.12l-2.22,11.8H758l-2.82,15.13h-48.4l12.81-67.98h46.89l-2.92,15.13h-28.84l-2.02,10.79h27.22
			L756.99,58.28z"/>
		<path d="M773.67,84.59c-1.45,0.75-3.23,0.87-4.16,0.87c-3.03,0-4.8-1.49-4.8-4.44c0-3.05,2.36-5.97,6.25-5.97
			c2.1,0,3.95,1.03,3.95,3.25c0,2.36-2.28,3.39-6.82,3.27c0.06,0.2,0.2,0.44,0.38,0.61c0.42,0.36,1.09,0.52,1.92,0.52
			c1.07,0,2.14-0.2,3.07-0.65L773.67,84.59z M770.54,77.57c-1.41,0-2.02,0.93-2.1,1.41c2.38,0,3.07-0.22,3.07-0.81
			C771.51,77.87,771.15,77.57,770.54,77.57z"/>
		<path d="M775.67,85.21l1.21-6.48c0.28-1.41,0.44-2.56,0.58-3.45h3.19l-0.18,1.63h0.04c1.05-1.39,2.3-1.88,3.61-1.88
			c1.92,0,2.74,1.17,2.74,2.84c0,0.4-0.08,1.23-0.14,1.59l-1.09,5.73h-3.59l0.97-5.16c0.06-0.34,0.1-0.75,0.1-1.09
			c0-0.63-0.18-1.05-0.83-1.05c-0.97,0-1.88,1.23-2.28,3.37l-0.75,3.93H775.67z"/>
		<path d="M794.32,72.42l-0.52,2.86h2.06l-0.54,2.78h-2.06l-0.48,2.28c-0.08,0.34-0.18,0.95-0.18,1.27c0,0.36,0.12,0.75,0.81,0.75
			c0.26,0,0.57,0,0.83-0.02l-0.46,2.84c-0.38,0.16-1.23,0.26-1.96,0.26c-1.92,0-2.88-0.87-2.88-2.16c0-0.54,0.04-1.05,0.22-1.96
			l0.65-3.27h-1.23l0.52-2.78h1.23l0.38-2.04L794.32,72.42z"/>
		<path d="M805.01,84.59c-1.45,0.75-3.23,0.87-4.16,0.87c-3.03,0-4.8-1.49-4.8-4.44c0-3.05,2.36-5.97,6.25-5.97
			c2.1,0,3.95,1.03,3.95,3.25c0,2.36-2.28,3.39-6.82,3.27c0.06,0.2,0.2,0.44,0.38,0.61c0.42,0.36,1.09,0.52,1.92,0.52
			c1.07,0,2.14-0.2,3.07-0.65L805.01,84.59z M801.88,77.57c-1.41,0-2.02,0.93-2.1,1.41c2.38,0,3.07-0.22,3.07-0.81
			C802.85,77.87,802.49,77.57,801.88,77.57z"/>
		<path d="M807.01,85.21l1.01-5.35c0.32-1.75,0.42-3.81,0.5-4.58h3.11c-0.04,0.71-0.08,1.41-0.14,2.12h0.06
			c0.71-1.31,1.9-2.36,3.47-2.36c0.2,0,0.4,0,0.61,0l-0.71,3.47c-0.14,0-0.28,0-0.44,0c-2.36,0-2.95,1.8-3.29,3.61l-0.58,3.09
			H807.01z"/>
		<path d="M822.21,72.42l-0.52,2.86h2.06l-0.54,2.78h-2.06l-0.48,2.28c-0.08,0.34-0.18,0.95-0.18,1.27c0,0.36,0.12,0.75,0.81,0.75
			c0.26,0,0.57,0,0.83-0.02l-0.46,2.84c-0.38,0.16-1.23,0.26-1.96,0.26c-1.92,0-2.88-0.87-2.88-2.16c0-0.54,0.04-1.05,0.22-1.96
			l0.65-3.27h-1.23l0.52-2.78h1.23l0.38-2.04L822.21,72.42z"/>
		<path d="M830.48,85.21c0.04-0.58,0.08-1.17,0.1-1.75h-0.04c-0.89,1.57-2.2,2-3.33,2c-1.86,0-3.33-1.39-3.33-3.69
			c0-3.39,2.3-6.72,7.64-6.72c1.33,0,2.78,0.28,3.73,0.59l-1.05,5.1c-0.2,1.09-0.42,3.11-0.38,4.48H830.48z M831.21,77.83
			c-0.22-0.04-0.48-0.06-0.69-0.06c-1.65,0-2.82,1.82-2.82,3.37c0,0.99,0.5,1.45,1.09,1.45c0.67,0,1.61-0.58,2.08-3.13L831.21,77.83
			z"/>
		<path d="M836.01,85.21l1.88-9.92h3.59l-1.88,9.92H836.01z M838.33,72.67c0-1.23,1.01-1.9,2.02-1.9c0.97,0,1.75,0.58,1.75,1.63
			c0,1.21-0.97,1.88-2.08,1.88C839.11,74.28,838.33,73.7,838.33,72.67z"/>
		<path d="M841.98,85.21l1.21-6.48c0.28-1.41,0.44-2.56,0.58-3.45h3.19l-0.18,1.63h0.04c1.05-1.39,2.3-1.88,3.61-1.88
			c1.92,0,2.74,1.17,2.74,2.84c0,0.4-0.08,1.23-0.14,1.59l-1.09,5.73h-3.59l0.97-5.16c0.06-0.34,0.1-0.75,0.1-1.09
			c0-0.63-0.18-1.05-0.83-1.05c-0.97,0-1.88,1.23-2.28,3.37l-0.75,3.93H841.98z"/>
		<path d="M854.34,85.21l1.17-6.48c0.26-1.41,0.42-2.56,0.54-3.45h3.07l-0.16,1.59h0.02c0.99-1.35,2.28-1.84,3.55-1.84
			c1.84,0,2.52,1.17,2.58,1.84c0.99-1.35,2.32-1.84,3.51-1.84c1.83,0,2.6,1.17,2.6,2.84c0,0.4-0.08,1.23-0.14,1.59l-1.05,5.73h-3.45
			l0.93-5.16c0.06-0.34,0.12-0.71,0.12-1.07c0-0.6-0.28-1.07-0.85-1.07c-1.01,0-1.82,1.47-2.16,3.37l-0.73,3.93h-3.45l0.95-5.16
			c0.06-0.34,0.12-0.71,0.12-1.01c0-0.69-0.24-1.13-0.79-1.13c-1.05,0-1.9,1.47-2.24,3.37l-0.71,3.93H854.34z"/>
		<path d="M881.73,84.59c-1.45,0.75-3.23,0.87-4.16,0.87c-3.03,0-4.8-1.49-4.8-4.44c0-3.05,2.36-5.97,6.25-5.97
			c2.1,0,3.95,1.03,3.95,3.25c0,2.36-2.28,3.39-6.82,3.27c0.06,0.2,0.2,0.44,0.38,0.61c0.42,0.36,1.09,0.52,1.92,0.52
			c1.07,0,2.14-0.2,3.07-0.65L881.73,84.59z M878.6,77.57c-1.41,0-2.02,0.93-2.1,1.41c2.38,0,3.07-0.22,3.07-0.81
			C879.57,77.87,879.21,77.57,878.6,77.57z"/>
		<path d="M883.72,85.21l1.21-6.48c0.28-1.41,0.44-2.56,0.58-3.45h3.19l-0.18,1.63h0.04c1.05-1.39,2.3-1.88,3.61-1.88
			c1.92,0,2.74,1.17,2.74,2.84c0,0.4-0.08,1.23-0.14,1.59l-1.09,5.73h-3.59l0.97-5.16c0.06-0.34,0.1-0.75,0.1-1.09
			c0-0.63-0.18-1.05-0.83-1.05c-0.97,0-1.88,1.23-2.28,3.37l-0.75,3.93H883.72z"/>
		<path d="M902.38,72.42l-0.52,2.86h2.06l-0.54,2.78h-2.06l-0.48,2.28c-0.08,0.34-0.18,0.95-0.18,1.27c0,0.36,0.12,0.75,0.81,0.75
			c0.26,0,0.57,0,0.83-0.02l-0.46,2.84c-0.38,0.16-1.23,0.26-1.96,0.26c-1.92,0-2.88-0.87-2.88-2.16c0-0.54,0.04-1.05,0.22-1.96
			l0.65-3.27h-1.23l0.52-2.78h1.23l0.38-2.04L902.38,72.42z"/>
	</g>
	<g>
		<path class="st0" d="M250.76,67.09c0-5.65-0.16-10.25-0.32-13.8h12.67l0.56,5.08h0.32c1.21-1.69,4.68-6.05,12.42-6.05
			c5.16,0,9.52,2.42,11.38,6.7h0.16c1.77-2.26,3.71-3.87,5.89-5c2.18-1.13,4.68-1.69,7.5-1.69c8.79,0,14.44,6.13,14.44,17.75v22.92
			H301.1V72.33c0-5.16-1.77-7.91-5.24-7.91c-2.58,0-4.19,1.69-4.84,3.63c-0.32,0.97-0.4,2.26-0.4,3.07v21.87h-14.68V72.33
			c0-5.16-1.77-7.91-5.24-7.91c-3.07,0-4.36,2.34-4.84,3.55c-0.4,1.05-0.4,2.1-0.4,2.99v22.03h-14.68V67.09z"/>
	</g>
	<g>
		<path class="st0" d="M250.76,69.09c0-5.65-0.16-10.25-0.32-13.8h12.67l0.56,5.08h0.32c1.21-1.69,4.68-6.05,12.42-6.05
			c5.16,0,9.52,2.42,11.38,6.7h0.16c1.77-2.26,3.71-3.87,5.89-5c2.18-1.13,4.68-1.69,7.5-1.69c8.79,0,14.44,6.13,14.44,17.75v22.92
			H301.1V74.33c0-5.16-1.77-7.91-5.24-7.91c-2.58,0-4.19,1.69-4.84,3.63c-0.32,0.97-0.4,2.26-0.4,3.07v21.87h-14.68V74.33
			c0-5.16-1.77-7.91-5.24-7.91c-3.07,0-4.36,2.34-4.84,3.55c-0.4,1.05-0.4,2.1-0.4,2.99v22.03h-14.68V69.09z"/>
	</g>
	<g>
		<g>
			<path class="st0" d="M370.24,74.32c2.5,1.53,8.31,3.31,12.18,3.31c3.31,0,4.52-0.65,4.52-2.02s-0.81-1.94-5.41-3.15
				c-9.28-2.42-12.91-7.26-12.83-12.35c0-8.07,7.26-13.8,18.23-13.8c5.4,0,10.33,1.21,12.91,2.42l-2.42,10.17
				c-2.02-0.97-6.29-2.42-9.84-2.42c-2.5,0-4.11,0.48-4.11,2.1c0,1.29,1.37,2.1,6.45,3.47c8.31,2.26,11.78,6.21,11.86,12.51
				c0,7.34-5.89,13.39-19.2,13.39c-6.21,0-11.38-1.29-14.92-2.99L370.24,74.32z"/>
		</g>
		<g>
			<path class="st0" d="M369.91,75.32c2.5,1.53,8.31,3.31,12.18,3.31c3.31,0,4.52-0.65,4.52-2.02s-0.81-1.94-5.41-3.15
				c-9.28-2.42-12.91-7.26-12.83-12.35c0-8.07,7.26-13.8,18.23-13.8c5.4,0,10.33,1.21,12.91,2.42l-2.42,10.17
				c-2.02-0.97-6.29-2.42-9.84-2.42c-2.5,0-4.11,0.48-4.11,2.1c0,1.29,1.37,2.1,6.45,3.47c8.31,2.26,11.78,6.21,11.86,12.51
				c0,7.34-5.89,13.39-19.2,13.39c-6.21,0-11.38-1.29-14.92-2.99L369.91,75.32z"/>
		</g>
		<g>
			<path class="st0" d="M369.76,76.58c2.5,1.53,8.31,3.31,12.18,3.31c3.31,0,4.52-0.65,4.52-2.02s-0.81-1.94-5.41-3.15
				c-9.28-2.42-12.91-7.26-12.83-12.35c0-8.07,7.26-13.8,18.23-13.8c5.4,0,10.33,1.21,12.91,2.42l-2.42,10.17
				c-2.02-0.97-6.29-2.42-9.84-2.42c-2.5,0-4.11,0.48-4.11,2.1c0,1.29,1.37,2.1,6.45,3.47c8.31,2.26,11.78,6.21,11.86,12.51
				c0,7.34-5.89,13.39-19.2,13.39c-6.21,0-11.38-1.29-14.92-2.99L369.76,76.58z"/>
		</g>
	</g>
	<g>
		<g>
			<path class="st0" d="M425.38,36.16v11.46h8.39v11.3h-8.39v9.92c0,4.84,0.81,7.1,4.84,7.1c1.61,0,2.9-0.16,3.63-0.32v11.46
				c-1.69,0.65-5.16,1.21-9.12,1.21c-4.6,0-8.39-1.78-10.49-3.95c-2.42-2.5-3.63-6.62-3.63-12.51V58.92h-5v-11.3h5v-8.15
				L425.38,36.16z"/>
		</g>
		<g>
			<path class="st0" d="M426.01,37.16v11.46h8.39v11.3h-8.39v9.92c0,4.84,0.81,7.1,4.84,7.1c1.61,0,2.9-0.16,3.63-0.32v11.46
				c-1.69,0.65-5.16,1.21-9.12,1.21c-4.6,0-8.39-1.78-10.49-3.95c-2.42-2.5-3.63-6.62-3.63-12.51V59.92h-5v-11.3h5v-8.15
				L426.01,37.16z"/>
		</g>
		<g>
			<path class="st0" d="M426.01,38.16v11.46h8.39v11.3h-8.39v9.92c0,4.84,0.81,7.1,4.84,7.1c1.61,0,2.9-0.16,3.63-0.32v11.46
				c-1.69,0.65-5.16,1.21-9.12,1.21c-4.6,0-8.39-1.78-10.49-3.95c-2.42-2.5-3.63-6.62-3.63-12.51V60.92h-5v-11.3h5v-8.15
				L426.01,38.16z"/>
		</g>
	</g>
	<g>
		<g>
			<path class="st0" d="M336.24,74.9c0.56,2.99,5.65,4.6,10.89,4.6c3.95,0,7.74-0.32,11.86-1.61l1.94,10
				c-5.41,2.18-10.81,2.74-15.89,2.74c-14.84,0-23.23-7.99-23.23-20.58c0-7.83,5.41-21.06,21.78-21.06c14.2,0,19.6,10.57,19.6,20.66
				c0,2.1-0.32,4.36-0.56,5.24H336.24z M349.07,64.65c0-1.77-1.21-5.97-6.21-5.97c-4.68,0-6.53,3.71-6.86,5.97H349.07z"/>
		</g>
		<g>
			<path class="st0" d="M336.57,76.54c0.56,2.99,5.65,4.6,10.89,4.6c3.95,0,7.74-0.32,11.86-1.61l1.94,10
				c-5.41,2.18-10.81,2.74-15.89,2.74c-14.84,0-23.23-7.99-23.23-20.58c0-7.83,5.41-21.06,21.78-21.06c14.2,0,19.6,10.57,19.6,20.66
				c0,2.1-0.32,4.36-0.56,5.24H336.57z M349.39,66.29c0-1.77-1.21-5.97-6.21-5.97c-4.68,0-6.53,3.71-6.86,5.97H349.39z"/>
		</g>
		<g>
			<path class="st0" d="M337.57,77.54c0.56,2.99,5.65,4.6,10.89,4.6c3.95,0,7.74-0.32,11.86-1.61l1.94,10
				c-5.41,2.18-10.81,2.74-15.89,2.74c-14.84,0-23.23-7.99-23.23-20.58c0-7.83,5.41-21.06,21.78-21.06c14.2,0,19.6,10.57,19.6,20.66
				c0,2.1-0.32,4.36-0.56,5.24H337.57z M350.39,67.29c0-1.77-1.21-5.97-6.21-5.97c-4.68,0-6.53,3.71-6.86,5.97H350.39z"/>
		</g>
	</g>
	<g>
		<g>
			<path class="st0" d="M452.5,72.18c0.56,2.99,5.65,4.6,10.89,4.6c3.95,0,7.74-0.32,11.86-1.61l1.94,10
				c-5.41,2.18-10.81,2.74-15.89,2.74c-14.84,0-23.23-7.99-23.23-20.58c0-7.83,5.41-21.06,21.78-21.06c14.2,0,19.6,10.57,19.6,20.66
				c0,2.1-0.32,4.36-0.56,5.24H452.5z M465.33,61.93c0-1.77-1.21-5.97-6.21-5.97c-4.68,0-6.53,3.71-6.86,5.97H465.33z"/>
		</g>
		<g>
			<path class="st0" d="M452.83,73.82c0.56,2.99,5.65,4.6,10.89,4.6c3.95,0,7.75-0.32,11.86-1.61l1.94,10
				c-5.41,2.18-10.81,2.74-15.89,2.74c-14.84,0-23.23-7.99-23.23-20.58c0-7.83,5.41-21.06,21.78-21.06c14.2,0,19.6,10.57,19.6,20.66
				c0,2.1-0.32,4.36-0.56,5.24H452.83z M465.66,63.57c0-1.77-1.21-5.97-6.21-5.97c-4.68,0-6.53,3.71-6.86,5.97H465.66z"/>
		</g>
		<g>
			<path class="st0" d="M453.83,74.82c0.56,2.99,5.65,4.6,10.89,4.6c3.95,0,7.75-0.32,11.86-1.61l1.94,10
				c-5.41,2.18-10.81,2.74-15.89,2.74c-14.84,0-23.23-7.99-23.23-20.58c0-7.83,5.41-21.06,21.78-21.06c14.2,0,19.6,10.57,19.6,20.66
				c0,2.1-0.32,4.36-0.56,5.24H453.83z M466.66,64.57c0-1.77-1.21-5.97-6.21-5.97c-4.68,0-6.53,3.71-6.86,5.97H466.66z"/>
		</g>
	</g>
	<g>
		<g>
			<path class="st0" d="M487.82,62.57c0-7.02-0.08-10.57-0.32-13.64h12.99l0.48,7.67h0.32c2.18-6.54,7.83-8.63,11.54-8.63
				c1.29,0,1.86,0,2.98,0.24v14.12c-1.13-0.24-2.34-0.48-4.03-0.48c-5.24,0-8.07,2.18-8.63,5.16c-0.08,0.65-0.08,1.29-0.08,1.94
				v19.69h-15.25V62.57z"/>
		</g>
		<g>
			<path class="st0" d="M488.31,64.07c0-7.02-0.08-10.57-0.32-13.64h12.99l0.48,7.67h0.32c2.18-6.54,7.83-8.63,11.54-8.63
				c1.29,0,1.86,0,2.99,0.24v14.12c-1.13-0.24-2.34-0.48-4.03-0.48c-5.24,0-8.07,2.18-8.63,5.16c-0.08,0.65-0.08,1.29-0.08,1.94
				v19.69h-15.25V64.07z"/>
		</g>
		<g>
			<path class="st0" d="M489.78,64.78c0-7.02-0.08-10.57-0.32-13.64h12.99l0.48,7.67h0.32c2.18-6.54,7.83-8.63,11.54-8.63
				c1.29,0,1.86,0,2.99,0.24v14.12c-1.13-0.24-2.34-0.48-4.03-0.48c-5.24,0-8.07,2.18-8.63,5.16c-0.08,0.65-0.08,1.29-0.08,1.94
				v19.69h-15.25V64.78z"/>
		</g>
	</g>
	<g>
		<g>
			<path class="st0" d="M622.46,61.52c0-5.65-0.16-10.25-0.32-13.8h13.15l0.65,5.24h0.16c3.47-4.28,8.39-6.21,14.36-6.21
				c7.91,0,17.59,6.29,17.59,20.17c0,14.77-10.49,21.46-19.68,21.46c-5,0-8.87-1.69-10.49-3.87h-0.16v19.04h-15.25V61.52z
				 M637.71,69.11c0,0.73,0,1.37,0.08,2.1c0.56,3.07,3.23,5.81,6.78,5.81c4.76,0,7.91-3.39,7.91-9.2c0-5.08-2.42-9.44-7.74-9.44
				c-3.47,0-6.45,2.82-6.94,6.21c-0.08,0.56-0.08,1.05-0.08,1.61V69.11z"/>
		</g>
		<g>
			<path class="st0" d="M622.32,63.52c0-5.65-0.16-10.25-0.32-13.8h13.15l0.65,5.24h0.16c3.47-4.28,8.39-6.21,14.36-6.21
				c7.91,0,17.59,6.29,17.59,20.17c0,14.77-10.49,21.46-19.68,21.46c-5,0-8.87-1.69-10.49-3.87h-0.16v19.04h-15.25V63.52z
				 M637.56,71.11c0,0.73,0,1.37,0.08,2.1c0.56,3.07,3.23,5.81,6.78,5.81c4.76,0,7.91-3.39,7.91-9.2c0-5.08-2.42-9.44-7.74-9.44
				c-3.47,0-6.45,2.82-6.94,6.21c-0.08,0.56-0.08,1.05-0.08,1.61V71.11z"/>
		</g>
		<g>
			<path class="st0" d="M624.32,64.52c0-5.65-0.16-10.25-0.32-13.8h13.15l0.65,5.24h0.16c3.47-4.28,8.39-6.21,14.36-6.21
				c7.91,0,17.59,6.29,17.59,20.17c0,14.77-10.49,21.46-19.68,21.46c-5,0-8.87-1.69-10.49-3.87h-0.16v19.04h-15.25V64.52z
				 M639.56,72.11c0,0.73,0,1.37,0.08,2.1c0.56,3.07,3.23,5.81,6.78,5.81c4.76,0,7.91-3.39,7.91-9.2c0-5.08-2.42-9.44-7.74-9.44
				c-3.47,0-6.45,2.82-6.94,6.21c-0.08,0.56-0.08,1.05-0.08,1.61V72.11z"/>
		</g>
	</g>
	<g>
		<g>
			<path class="st0" d="M616.19,67.09c0,13.56-10.41,21.3-23.23,21.3c-12.34,0-22.75-7.42-22.75-20.5c0-12.1,8.47-21.14,23.72-21.14
				C607.08,46.76,616.19,55.15,616.19,67.09z M586.1,67.58c0,5.65,2.26,10.25,7.26,10.25c4.36,0,6.94-3.63,6.94-10.25
				c0-5.57-2.1-10.25-6.94-10.25C588.04,57.33,586.1,62.41,586.1,67.58z"/>
		</g>
		<g>
			<path class="st0" d="M615.97,68.09c0,13.56-10.41,21.3-23.23,21.3c-12.34,0-22.75-7.42-22.75-20.5c0-12.1,8.47-21.14,23.72-21.14
				C606.85,47.76,615.97,56.15,615.97,68.09z M585.88,68.58c0,5.65,2.26,10.25,7.26,10.25c4.36,0,6.94-3.63,6.94-10.25
				c0-5.57-2.1-10.25-6.94-10.25C587.81,58.33,585.88,63.41,585.88,68.58z"/>
		</g>
		<g>
			<path class="st0" d="M615.97,70.09c0,13.56-10.41,21.3-23.23,21.3c-12.34,0-22.75-7.42-22.75-20.5c0-12.1,8.47-21.14,23.72-21.14
				C606.85,49.76,615.97,58.15,615.97,70.09z M585.88,70.58c0,5.65,2.26,10.25,7.26,10.25c4.36,0,6.94-3.63,6.94-10.25
				c0-5.57-2.1-10.25-6.94-10.25C587.81,60.33,585.88,65.41,585.88,70.58z"/>
		</g>
		<g>
			<path class="st0" d="M616.97,69.09c0,13.56-10.41,21.3-23.23,21.3c-12.34,0-22.75-7.42-22.75-20.5c0-12.1,8.47-21.14,23.72-21.14
				C607.85,48.76,616.97,57.15,616.97,69.09z M586.88,69.58c0,5.65,2.26,10.25,7.26,10.25c4.36,0,6.94-3.63,6.94-10.25
				c0-5.57-2.1-10.25-6.94-10.25C588.81,59.33,586.88,64.41,586.88,69.58z"/>
		</g>
	</g>
	<g>
		<path class="st0" d="M521.71,89.54c0.16-2.1,0.32-7.34,0.32-12.51V31.77h15.25v22.19h0.16c2.42-3.15,6.86-5.08,12.34-5.08
			c9.76,0,17.99,7.18,17.83,20.25c0,14.52-10.33,21.38-19.93,21.38c-4.6,0-9.68-1.69-12.42-6.29h-0.16l-0.57,5.33H521.71z
			 M537.28,71.31c0,0.65,0,1.21,0.08,1.78c0.56,2.9,3.23,5.65,6.78,5.65c4.68,0,7.91-3.15,7.91-9.12c0-5.08-2.42-9.36-7.99-9.36
			c-3.31,0-6.21,2.5-6.7,5.81c-0.08,0.65-0.08,1.21-0.08,1.86V71.31z"/>
	</g>
	<g>
		<path class="st0" d="M522.01,90.34c0.16-2.1,0.32-7.34,0.32-12.51V32.56h15.25v22.19h0.16c2.42-3.15,6.86-5.08,12.34-5.08
			c9.76,0,17.99,7.18,17.83,20.25c0,14.52-10.33,21.38-19.93,21.38c-4.6,0-9.68-1.69-12.42-6.29h-0.16l-0.57,5.33H522.01z
			 M537.58,72.1c0,0.65,0,1.21,0.08,1.78c0.56,2.9,3.23,5.65,6.78,5.65c4.68,0,7.91-3.15,7.91-9.12c0-5.08-2.42-9.36-7.99-9.36
			c-3.31,0-6.21,2.5-6.7,5.81c-0.08,0.65-0.08,1.21-0.08,1.86V72.1z"/>
	</g>
	<g>
		<path class="st0" d="M520.03,91.28c0.16-2.1,0.32-7.34,0.32-12.51V33.5h15.25v22.19h0.16c2.42-3.15,6.86-5.08,12.34-5.08
			c9.76,0,17.99,7.18,17.83,20.25c0,14.52-10.33,21.38-19.93,21.38c-4.6,0-9.68-1.69-12.42-6.29h-0.16l-0.56,5.33H520.03z
			 M535.6,73.04c0,0.65,0,1.21,0.08,1.78c0.56,2.9,3.23,5.65,6.78,5.65c4.68,0,7.91-3.15,7.91-9.12c0-5.08-2.42-9.36-7.99-9.36
			c-3.31,0-6.21,2.5-6.7,5.81c-0.08,0.65-0.08,1.21-0.08,1.86V73.04z"/>
	</g>
</g>
</svg>
